<?xml version="1.0" encoding="utf-8"?>
<!-- Generator: Adobe Illustrator 16.0.0, SVG Export Plug-In . SVG Version: 6.00 Build 0)  -->
<!DOCTYPE svg PUBLIC "-//W3C//DTD SVG 1.1//EN" "http://www.w3.org/Graphics/SVG/1.1/DTD/svg11.dtd">
<svg version="1.1" id="Layer_1" xmlns="http://www.w3.org/2000/svg" xmlns:xlink="http://www.w3.org/1999/xlink" x="0px" y="0px"
	 width="260px" height="65px" viewBox="0 0 260 65" enable-background="new 0 0 260 65" xml:space="preserve">
<g>
	<g>
		<g>
			<path fill="#AE132D" d="M48.049,39.463h-0.056c-4.601,0.011-7.688,2.096-8.902,3.837c-1.364,1.941-2.385,4.504-2.385,8.06
				c0,4.213,1.291,7.12,3.235,9.149c2.626,2.744,6.873,2.745,8.062,2.75h0.041c1.188-0.005,5.436-0.006,8.062-2.75
				c1.934-2.029,3.234-4.937,3.234-9.149c0-3.556-1.026-6.118-2.386-8.06C55.736,41.559,52.651,39.474,48.049,39.463 M48.031,58.876
				h-0.015h-0.008c-2.845-0.008-6.06-1.009-6.06-7.517c0-5.001,2.181-7.505,6.06-7.514v-0.004h0.008h0.015v0.004
				c3.878,0.009,6.061,2.513,6.061,7.514C54.092,57.867,50.88,58.868,48.031,58.876 M78.476,54.121h-0.004l-10.899-14.45h-5.063
				v23.4h5.063V48.62l10.899,14.451h0.004h5.048v-23.4h-5.048V54.121z M28.237,58.573c-6.046,0-7.305-4.464-7.305-7.001
				c0-2.818,1.084-6.033,3.945-7.143c2.314-0.857,4.041-0.417,5.21-0.104l0.876,2.071h3.451l0.537-5.887c0,0-3.163-1.041-7.24-1.041
				c-5.048,0-11.99,1.584-11.99,12.084c0,9.578,7.048,11.727,11.771,11.713c4.251-0.015,7.036-1.161,7.48-1.31l-1.146-4.405
				C32.772,57.863,30.386,58.573,28.237,58.573 M134.362,58.376V58.37c-1.289,0-1.628-0.45-1.628-1.675v-3.148h10.269v-4.619
				h-10.269l0.008-4.666h11.267l0.453-4.626h-16.787v18.089c0,3.67,0.745,5.273,4.987,5.273h11.918l-0.009-4.622H134.362z
				 M154.119,58.376c-1.123,0-1.551-0.378-1.551-1.508V39.636h-5.059v18.021c0,3.996,0.936,5.341,4.872,5.341h10.482l0.429-4.622
				H154.119z M106.127,44.262h6.987v18.736h5.06V44.262h6.983v-4.621h-19.485L106.127,44.262z M93.272,39.636
				c-1.639,3.704-6.605,19.491-7.627,23.36c1.091,0,5.76-0.002,5.76-0.002s0.656-2.118,1.336-5.1h8.626
				c0.661,2.981,1.336,5.1,1.336,5.1s4.655,0.002,5.747,0.002c-0.936-3.921-6.07-19.656-7.623-23.36H93.272z M93.848,53.27
				c0,0,1.742-5.988,3.209-8.838c1.407,2.85,3.189,8.838,3.189,8.838H93.848z"/>
		</g>
	</g>
	<g>
		<g opacity="0.7">
			<path fill="#5E5C5E" d="M216.272,27.031h-0.964l4.483-9.478h1.234l2.156,9.478h-0.95l-0.581-2.553h-4.187L216.272,27.031z
				 M217.834,23.655h3.632l-1.163-5.377L217.834,23.655z"/>
			<path fill="#5E5C5E" d="M228.389,19.724c1.334,0,2.271,0.455,2.029,2.342l-0.596,4.965h-0.852l0.582-4.739
				c0.17-1.49-0.469-1.759-1.519-1.759c-0.752,0-1.574,0.212-2.029,0.482l-0.737,6.016h-0.865l0.81-6.597
				C226.203,20.051,227.381,19.724,228.389,19.724z M225.892,18.207c0.327-0.482,0.895-0.894,1.348-0.894
				c0.667,0,1.234,0.624,1.789,0.624c0.24,0,0.468-0.142,0.822-0.497l0.369,0.369c-0.355,0.554-0.938,0.895-1.405,0.895
				c-0.667,0-1.135-0.639-1.73-0.639c-0.241,0-0.454,0.142-0.809,0.497L225.892,18.207z"/>
			<path fill="#5E5C5E" d="M232.247,23.484c0.341-2.752,1.675-3.745,3.562-3.745c1.915,0,2.866,0.964,2.525,3.731
				c-0.341,2.753-1.631,3.76-3.519,3.76C232.759,27.23,231.907,26.251,232.247,23.484z M233.169,23.484
				c-0.269,2.228,0.397,2.937,1.774,2.937c1.177,0,2.198-0.709,2.469-2.937c0.298-2.412-0.426-2.951-1.73-2.951
				C234.518,20.534,233.468,21.072,233.169,23.484z"/>
			<path fill="#5E5C5E" d="M239.568,25.939c0.468,0.241,1.063,0.482,1.73,0.482c1.149,0,1.674-0.454,1.759-1.192
				c0.227-1.858-3.376-1.092-3.093-3.448c0.156-1.319,1.149-2.042,2.696-2.042c0.794,0,1.276,0.198,1.617,0.411l-0.255,0.766
				c-0.369-0.212-0.979-0.382-1.435-0.382c-1.021,0-1.574,0.354-1.673,1.149c-0.213,1.703,3.39,1.135,3.121,3.376
				c-0.156,1.277-1.093,2.171-2.881,2.171c-0.766,0-1.532-0.199-1.915-0.497L239.568,25.939z"/>
		</g>
		<path fill="#757578" d="M206.078,28.735c-1.662,1.716-3.887,2.667-6.241,2.667c-2.229,0-4.34-0.854-5.968-2.406
			c-0.089-0.086-0.177-0.172-0.263-0.261c-1.67-1.721-2.58-4.002-2.58-6.437c0,0-1.914-0.304-2.053-0.395
			c-0.138-0.093-0.552-0.552-0.552-0.552s0.414-1.198,0.414-1.382s0.6-1.198,0.6-1.198l1.539-0.69l1.121-0.147
			c0.4-0.753,0.906-1.45,1.511-2.075c1.661-1.725,3.88-2.668,6.23-2.668c1.395,0,2.741,0.335,3.952,0.961l3.042-4.584
			c-2.058-1.214-4.444-1.907-6.994-1.907c-7.827,0-14.171,6.554-14.171,14.638l2.225,1.999l2.808,3.039l0.969,3.868l1.209,3.842
			c2.057,1.201,4.431,1.888,6.961,1.888c4.492,0,8.505-2.161,11.092-5.522l-4.482-3.077
			C206.329,28.469,206.205,28.604,206.078,28.735 M208.804,10.959l-3.035,4.593c0.107,0.102,0.208,0.194,0.31,0.306
			c1.671,1.719,2.587,4.005,2.587,6.439c0,1.399-0.306,2.75-0.88,3.97l4.475,3.084c1.124-2.092,1.756-4.496,1.756-7.054
			C214.016,17.726,211.99,13.644,208.804,10.959"/>
		<path fill="#757578" d="M182.559,45.412c-7.592,0-13.768-6.176-13.768-13.768c0-7.591,6.176-13.768,13.768-13.768
			c7.593,0,13.768,6.176,13.768,13.768C196.326,39.236,190.151,45.412,182.559,45.412z M182.559,23.403
			c-4.546,0-8.241,3.698-8.241,8.241c0,4.547,3.695,8.241,8.241,8.241c4.545,0,8.241-3.694,8.241-8.241
			C190.8,27.101,187.104,23.403,182.559,23.403z"/>
		<path fill="#757578" d="M182.559,23.403c-6.088,0-11.04-4.952-11.04-11.039c0-6.085,4.952-11.037,11.04-11.037
			c6.087,0,11.037,4.952,11.037,11.037C193.596,18.451,188.646,23.403,182.559,23.403z M182.559,6.853
			c-3.04,0-5.514,2.472-5.514,5.512c0,3.042,2.474,5.513,5.514,5.513c3.039,0,5.512-2.471,5.512-5.513
			C188.07,9.325,185.598,6.853,182.559,6.853z"/>
	</g>
</g>
</svg>
